<svg width="512" height="495" viewBox="0 0 512 495" fill="none" xmlns="http://www.w3.org/2000/svg">
<g clip-path="url(#clip0_107_8)">
<rect width="512" height="494.57" rx="80" fill="#645CAA"/>
<g filter="url(#filter0_d_107_8)">
<path d="M245.49 373.5L225.99 462H181.49L265.99 112H323.49L406.49 462H361.99L342.99 373.5H245.49ZM334.99 336L293.99 145L253.49 336H334.99Z" fill="white"/>
</g>
<g filter="url(#filter1_d_107_8)">
<path d="M197.99 374C168.99 374 146.657 367 130.99 353C115.657 338.667 107.99 317.333 107.99 289V109C107.99 80.6667 115.657 59.5 130.99 45.5C146.657 31.1666 168.99 24 197.99 24H268.99V62H192.99C180.657 62 170.657 65.6667 162.99 73C155.324 80.3333 151.49 89.1666 151.49 99.5V298.5C151.49 308.833 155.324 317.667 162.99 325C170.657 332.333 180.657 336 192.99 336H268.99V374H197.99Z" fill="white"/>
</g>
</g>
<defs>
<filter id="filter0_d_107_8" x="177.49" y="112" width="233" height="358" filterUnits="userSpaceOnUse" color-interpolation-filters="sRGB">
<feFlood flood-opacity="0" result="BackgroundImageFix"/>
<feColorMatrix in="SourceAlpha" type="matrix" values="0 0 0 0 0 0 0 0 0 0 0 0 0 0 0 0 0 0 127 0" result="hardAlpha"/>
<feOffset dy="4"/>
<feGaussianBlur stdDeviation="2"/>
<feComposite in2="hardAlpha" operator="out"/>
<feColorMatrix type="matrix" values="0 0 0 0 0 0 0 0 0 0 0 0 0 0 0 0 0 0 0.25 0"/>
<feBlend mode="normal" in2="BackgroundImageFix" result="effect1_dropShadow_107_8"/>
<feBlend mode="normal" in="SourceGraphic" in2="effect1_dropShadow_107_8" result="shape"/>
</filter>
<filter id="filter1_d_107_8" x="103.99" y="24" width="169" height="358" filterUnits="userSpaceOnUse" color-interpolation-filters="sRGB">
<feFlood flood-opacity="0" result="BackgroundImageFix"/>
<feColorMatrix in="SourceAlpha" type="matrix" values="0 0 0 0 0 0 0 0 0 0 0 0 0 0 0 0 0 0 127 0" result="hardAlpha"/>
<feOffset dy="4"/>
<feGaussianBlur stdDeviation="2"/>
<feComposite in2="hardAlpha" operator="out"/>
<feColorMatrix type="matrix" values="0 0 0 0 0 0 0 0 0 0 0 0 0 0 0 0 0 0 0.25 0"/>
<feBlend mode="normal" in2="BackgroundImageFix" result="effect1_dropShadow_107_8"/>
<feBlend mode="normal" in="SourceGraphic" in2="effect1_dropShadow_107_8" result="shape"/>
</filter>
<clipPath id="clip0_107_8">
<rect width="512" height="495" fill="white"/>
</clipPath>
</defs>
</svg>
