<svg xmlns="http://www.w3.org/2000/svg" version="1.1" id="Layer_1" x="0px" y="0px" width="42px" height="42px" viewBox="0 0 42 42" data-reactid=".0.0.1.0.0:$0.0.2.0.0.0.0.3.1.0.$26.0.0"><path fill="#ff6334" d="M20.632,20.716C10.02,14.143,19.234,4,19.234,4C4.647,5.698-1.641,24.373,10.194,33.994 l0.087-3.439c2.271,2.525,5.066,2.742,5.066,2.742c-1.791-1.48-1.791-4.788-1.791-4.788c2.882,3.222,5.983,2.046,5.983,2.046 c-3.625-1.176-3.363-4.875-3.363-4.875c6.333,1.088,6.071,5.527,6.071,5.527c-2.096,6.227-9.434,4.615-9.434,4.615 c8.822,5.354,20.701,0.261,24.064-9.012c3.406-9.229-1.223-20.287-10.176-18.196c-0.219-1.959,2.053-3.526,2.053-3.526 C23.6,6.742,23.949,9.18,23.949,9.18l-1.791-2.351l0.438,3.961l-1.092,4.614c1.049,3.265,3.102,2.22,4.367-0.348 C33.43,13.621,30.24,25.896,20.632,20.716z" data-reactid=".0.0.1.0.0:$0.0.2.0.0.0.0.3.1.0.$26.0.0.0"/></svg>